# xmcd CD database file
#
# Track frame offsets:
#	150
#	24061
#	57245
#	85035
#	114891
#	145029
#	178997
#	212014
#	244034
#
# Disc length: 3600 seconds
#
# Revision: 0
# Processed by: cddbd v1.5.2PL0 Copyright (c) Steve Scherf et al.
# Submitted via: CDex 1.70beta2
#
DISCID=6b0e0e09
DTITLE=Steve Herberman Trio w/Drew Gress and Mark Ferber - Action: Reaction
DYEAR=2006
DGENRE=Jazz
TTITLE0=Cos' Groove
TTITLE1=Be Nimble
TTITLE2=Negev Journey
TTITLE3=Shoutin' Down
TTITLE4=Halcyon Air
TTITLE5=Worry Not
TTITLE6=Nearly TIme
TTITLE7=Snap!
TTITLE8=Sphericity
EXTD=YEAR: 2006
EXTT0=
EXTT1=
EXTT2=
EXTT3=
EXTT4=
EXTT5=
EXTT6=
EXTT7=
EXTT8=
PLAYORDER=
